<svg width="200" height="56" viewBox="0 0 200 56" fill="none" xmlns="http://www.w3.org/2000/svg">
<path d="M98.4251 20.2572C95.9778 19.3368 93.6105 18.8909 90.6292 19.5226C88.3019 20.0143 86.4315 20.9519 85.2035 23.2901C85.7432 23.7303 86.2287 24.1476 86.7027 24.5621C87.4823 25.2396 88.2905 25.9371 89.3728 26.7489C90.2295 25.5254 91.7258 24.1476 93.3307 24.1162C95.1925 24.079 96.9773 25.1052 97.2714 26.6088C97.3914 27.232 97.4713 29.8075 97.4713 29.8075L96.4947 30.0161C96.3013 30.0884 96.0884 30.0884 95.895 30.0161L95.7408 29.9561L95.6152 29.9075C93.6097 29.1313 91.4827 28.7171 89.3328 28.6841C88.6099 28.6838 87.888 28.7402 87.1739 28.8527C84.9808 29.1986 82.3736 30.4392 82.4193 34.3982C82.4364 35.9046 82.7505 37.0337 83.4131 37.9513C83.996 38.7885 84.7758 39.4691 85.6837 39.9333C86.5915 40.3974 87.5996 40.6307 88.6189 40.6125C91.1098 40.6888 93.5412 39.8419 95.4467 38.2343C95.4867 38.2028 95.9407 37.8055 96.0721 37.7026L97.4171 36.6593V40.584H103.028V26.8632C103.031 23.756 101.341 21.3549 98.4251 20.2572ZM96.6918 33.1519C95.4924 35.3015 93.5363 36.5163 91.286 36.5163C91.1918 36.5163 91.0947 36.5163 91.0005 36.5163C90.5271 36.5066 90.0561 36.4462 89.5955 36.3362C87.9135 35.8932 86.9569 34.5383 87.0254 32.7145L87.0597 31.917H97.3771L96.6918 33.1519Z" fill="black"/>
<path d="M157.04 20.2572C154.593 19.3368 152.225 18.8909 149.247 19.5226C146.917 20.0143 145.046 20.9519 143.821 23.2901C144.361 23.7303 144.846 24.1476 145.32 24.5621C146.103 25.2396 146.908 25.9371 147.99 26.7489C148.847 25.5254 150.346 24.1476 151.948 24.1162C153.813 24.079 155.595 25.1052 155.889 26.6088C156.009 27.232 156.089 29.8075 156.089 29.8075L155.115 30.0161C154.922 30.0884 154.709 30.0884 154.515 30.0161C154.467 29.999 154.413 29.979 154.361 29.9561L154.233 29.9075C152.227 29.1313 150.1 28.7171 147.95 28.6841C147.227 28.6838 146.506 28.7402 145.791 28.8527C143.598 29.1986 140.991 30.4392 141.037 34.3982C141.054 35.9046 141.371 37.0337 142.031 37.9513C142.614 38.7885 143.393 39.4691 144.301 39.9333C145.209 40.3974 146.217 40.6307 147.236 40.6125C149.728 40.689 152.161 39.8421 154.067 38.2343C154.104 38.2028 154.561 37.8055 154.69 37.7026L156.035 36.6593V40.584H161.646V26.8632C161.646 23.756 159.955 21.3549 157.04 20.2572ZM155.306 33.1519C154.11 35.3015 152.151 36.5163 149.904 36.5163C149.806 36.5163 149.709 36.5163 149.618 36.5163C149.146 36.5066 148.676 36.4462 148.216 36.3362C146.531 35.8932 145.574 34.5383 145.646 32.7145L145.68 31.917H155.995L155.306 33.1519Z" fill="black"/>
<path d="M195.377 20.2572C192.929 19.3368 190.562 18.8909 187.581 19.5226C185.254 20.0143 183.383 20.9519 182.155 23.2901C182.695 23.7303 183.18 24.1476 183.654 24.5621C184.434 25.2396 185.242 25.9371 186.324 26.7489C187.181 25.5254 188.677 24.1476 190.282 24.1162C192.147 24.079 193.929 25.1052 194.223 26.6088C194.343 27.232 194.423 29.8075 194.423 29.8075L193.446 30.0161C193.254 30.0877 193.042 30.0877 192.849 30.0161C192.801 29.999 192.747 29.979 192.695 29.9561L192.567 29.9075C190.561 29.1313 188.434 28.7171 186.284 28.6841C185.561 28.6838 184.84 28.7402 184.126 28.8527C181.932 29.1986 179.325 30.4392 179.371 34.3982C179.388 35.9046 179.702 37.0337 180.365 37.9513C180.948 38.7885 181.727 39.4691 182.635 39.9333C183.543 40.3974 184.551 40.6307 185.57 40.6125C188.062 40.689 190.495 39.8421 192.401 38.2343C192.438 38.2028 192.895 37.8055 193.024 37.7026L194.369 36.6593V40.584H199.98V26.8632C199.983 23.756 198.292 21.3549 195.377 20.2572ZM193.643 33.1519C192.444 35.3015 190.488 36.5163 188.238 36.5163C188.143 36.5163 188.046 36.5163 187.952 36.5163C187.479 36.5066 187.008 36.4462 186.547 36.3362C184.865 35.8932 183.908 34.5383 183.977 32.7145L184.011 31.917H194.323L193.643 33.1519Z" fill="black"/>
<path d="M177.018 20.9919C175.202 21.0748 173.908 21.8694 173.051 23.433C172.957 23.6045 172.352 24.7937 172.352 24.7937L171.007 24.4821V23.8189V21.2691H165.581V40.6268H171.021V38.8689C171.021 37.0471 171.021 35.2281 171.021 33.412V33.0661C171.021 32.423 170.978 31.7569 171.021 31.0909C171.1 29.9255 171.583 28.8242 172.386 27.9768C173.19 27.1295 174.263 26.5891 175.421 26.4487C176.181 26.3401 178.092 26.3315 178.3 26.3287V20.9804C177.846 20.9747 177.429 20.9719 177.018 20.9919Z" fill="black"/>
<path d="M78.2186 36.1047C77.7408 36.0968 77.2639 36.0586 76.7908 35.9903C75.363 35.7559 74.452 35.0528 74.0637 33.8951C73.8894 33.4112 73.7931 32.9028 73.7781 32.3886V23.7446L74.6205 23.7074C76.4224 23.6188 78.3329 23.4873 80.1462 22.9842L78.9896 19.0366L73.7781 19.8113V14H67.6242V19.8113H63.4664V23.796H67.6242C67.6242 23.796 67.6242 32.0142 67.6585 34.1123C67.662 35.3937 68.0316 36.6474 68.7237 37.7254C69.5518 38.986 70.754 39.775 72.5131 40.2095C74.4064 40.6754 76.3253 40.6525 78.3528 40.6297H78.8383V36.1276H78.6041L78.2186 36.1047Z" fill="black"/>
<path d="M125.339 29.7217C125.339 27.7665 126.653 26.2229 128.438 26.0571C130.591 25.8542 132.104 26.9318 132.49 28.9356C132.548 29.288 132.571 29.645 132.561 30.0019C132.561 32.9089 132.561 35.7903 132.561 38.6745V40.6011H137.987V37.6026C137.987 34.2381 137.987 30.8737 137.987 27.5093C137.993 26.8789 137.941 26.2493 137.833 25.6284C137.382 23.2272 136.097 21.7637 133.929 21.1463C131.582 20.4888 127.647 20.9805 125.819 24.1791L124.985 25.8485C124.506 23.4531 123.138 21.718 120.956 21.0919C118.609 20.4345 115.068 20.9862 113.246 24.1848L112.429 25.6141V21.2663H106.752V40.6269H112.406C112.406 40.6269 112.406 32.9518 112.406 30.1248C112.406 29.7626 112.429 29.4007 112.475 29.0414C112.54 28.3628 112.814 27.7211 113.259 27.205C113.704 26.6889 114.298 26.3238 114.959 26.16C116.507 25.7599 118.115 26.2572 118.957 27.4035C119.456 28.144 119.699 29.0272 119.651 29.919C119.651 32.6517 119.651 40.6126 119.651 40.6126H125.339V29.7217Z" fill="black"/>
<path d="M2.59577 21.5264C1.46909 22.7027 0.586792 24.0911 0 25.6112L17.9905 40.5439C18.8757 40.0001 19.6885 39.346 20.4092 38.5973L20.7605 38.2314C27.5768 31.108 23.0992 23.3901 20.3835 20.7946C18.023 18.5339 14.8626 17.3035 11.5964 17.3737C8.33027 17.4439 5.22551 18.809 2.96415 21.1691L2.59577 21.5264Z" fill="black"/>
<path d="M39.7104 42.2619C46.5898 42.2619 52.1667 36.6794 52.1667 29.7931C52.1667 22.9068 46.5898 17.3244 39.7104 17.3244C32.831 17.3244 27.2542 22.9068 27.2542 29.7931C27.2542 36.6794 32.831 42.2619 39.7104 42.2619Z" fill="black"/>
</svg>
